<svg width="176" height="26" viewBox="0 0 176 26" fill="none" xmlns="http://www.w3.org/2000/svg">
<g clip-path="url(#clip0_2008_88)">
<path d="M39.4616 12.2514H39.4393V12.0663H39.4616C41.4086 12.0663 42.5672 10.7226 42.5672 8.75332C42.5672 6.22868 40.5979 4.18918 38.003 4.18918H32.5356V20.4094H39.2318C41.8044 20.4094 43.8215 18.3699 43.8215 15.9155C43.8215 13.4611 41.5969 12.2546 39.4648 12.2546L39.4616 12.2514ZM34.7347 6.36592H38.003C39.3691 6.36592 40.4128 7.47664 40.4128 8.798C40.4128 10.1194 39.3691 11.2301 38.003 11.2301H34.7347V6.36273V6.36592ZM39.3691 18.2071H34.7347V13.3653H39.3244C40.6904 13.3653 41.7565 14.4314 41.7565 15.7974C41.7565 17.1635 40.6904 18.2071 39.3691 18.2071Z" fill="#231F20"/>
<path d="M39.4616 12.2514H39.4393V12.0663H39.4616C41.4086 12.0663 42.5672 10.7226 42.5672 8.75332C42.5672 6.22868 40.5979 4.18918 38.003 4.18918H32.5356V20.4094H39.2318C41.8044 20.4094 43.8215 18.3699 43.8215 15.9155C43.8215 13.4611 41.5969 12.2546 39.4648 12.2546L39.4616 12.2514ZM34.7347 6.36592H38.003C39.3691 6.36592 40.4128 7.47664 40.4128 8.798C40.4128 10.1194 39.3691 11.2301 38.003 11.2301H34.7347V6.36273V6.36592ZM39.3691 18.2071H34.7347V13.3653H39.3244C40.6904 13.3653 41.7565 14.4314 41.7565 15.7974C41.7565 17.1635 40.6904 18.2071 39.3691 18.2071Z" fill="black" fill-opacity="0.2"/>
<path d="M63.4572 11.0257C62.6688 10.8182 61.9507 10.6076 61.2804 10.4001C59.9367 9.95967 58.9154 9.449 58.9154 8.26807C58.9154 6.87648 60.1665 6.18388 61.9283 6.18388C63.6902 6.18388 64.7785 6.90202 65.1264 8.84896H67.2808C67.1181 5.69875 65.0339 4.00714 61.8581 4.00714C58.6824 4.00714 56.7131 5.60619 56.7131 8.34148C56.7131 14.1823 65.6116 11.3544 65.6116 15.8962C65.6116 17.9357 63.687 18.3539 62.0879 18.3539C59.8633 18.3539 58.5196 17.2176 58.2643 14.6228H56.1099V14.9483C56.1099 18.4719 58.5196 20.5561 62.3209 20.5561C67.2553 20.5561 67.7436 17.058 67.8138 15.759V15.5515C67.8138 12.7716 65.752 11.6353 63.4572 11.0321V11.0257Z" fill="#231F20"/>
<path d="M63.4572 11.0257C62.6688 10.8182 61.9507 10.6076 61.2804 10.4001C59.9367 9.95967 58.9154 9.449 58.9154 8.26807C58.9154 6.87648 60.1665 6.18388 61.9283 6.18388C63.6902 6.18388 64.7785 6.90202 65.1264 8.84896H67.2808C67.1181 5.69875 65.0339 4.00714 61.8581 4.00714C58.6824 4.00714 56.7131 5.60619 56.7131 8.34148C56.7131 14.1823 65.6116 11.3544 65.6116 15.8962C65.6116 17.9357 63.687 18.3539 62.0879 18.3539C59.8633 18.3539 58.5196 17.2176 58.2643 14.6228H56.1099V14.9483C56.1099 18.4719 58.5196 20.5561 62.3209 20.5561C67.2553 20.5561 67.7436 17.058 67.8138 15.759V15.5515C67.8138 12.7716 65.752 11.6353 63.4572 11.0321V11.0257Z" fill="black" fill-opacity="0.2"/>
<path d="M76.2719 4.21144H69.5757V20.4317H71.778V13.4578H76.2719C78.8221 13.4578 80.8839 11.396 80.8839 8.8458C80.8839 6.29562 78.8221 4.21144 76.2719 4.21144ZM76.2719 11.2555H71.778V6.41372H76.2719C77.5932 6.41372 78.6816 7.47975 78.6816 8.8458C78.6816 10.2118 77.5932 11.2555 76.2719 11.2555Z" fill="#231F20"/>
<path d="M76.2719 4.21144H69.5757V20.4317H71.778V13.4578H76.2719C78.8221 13.4578 80.8839 11.396 80.8839 8.8458C80.8839 6.29562 78.8221 4.21144 76.2719 4.21144ZM76.2719 11.2555H71.778V6.41372H76.2719C77.5932 6.41372 78.6816 7.47975 78.6816 8.8458C78.6816 10.2118 77.5932 11.2555 76.2719 11.2555Z" fill="black" fill-opacity="0.2"/>
<path d="M87.8357 4.02628C84.5929 4.02628 81.9502 6.43601 81.9502 10.0522V14.6419C81.9502 18.4656 84.5929 20.6678 87.8357 20.6678C91.0785 20.6678 93.7435 18.4656 93.7435 14.6419V10.0522C93.7435 6.43601 91.0785 4.02628 87.8357 4.02628ZM91.4966 15.8675C91.1487 17.4665 90.105 18.4624 87.7878 18.4624C85.4706 18.4624 84.545 17.4665 84.1971 15.8675V15.8452C84.1493 15.4749 84.0823 13.9908 84.0823 12.4141C84.0823 10.8374 84.1525 9.28621 84.245 8.75319C84.5929 7.17649 85.5441 6.22855 87.8357 6.22855C90.1273 6.22855 91.104 7.20202 91.4519 8.75319C91.7296 9.72666 91.6594 15.1941 91.4998 15.8675H91.4966Z" fill="#231F20"/>
<path d="M87.8357 4.02628C84.5929 4.02628 81.9502 6.43601 81.9502 10.0522V14.6419C81.9502 18.4656 84.5929 20.6678 87.8357 20.6678C91.0785 20.6678 93.7435 18.4656 93.7435 14.6419V10.0522C93.7435 6.43601 91.0785 4.02628 87.8357 4.02628ZM91.4966 15.8675C91.1487 17.4665 90.105 18.4624 87.7878 18.4624C85.4706 18.4624 84.545 17.4665 84.1971 15.8675V15.8452C84.1493 15.4749 84.0823 13.9908 84.0823 12.4141C84.0823 10.8374 84.1525 9.28621 84.245 8.75319C84.5929 7.17649 85.5441 6.22855 87.8357 6.22855C90.1273 6.22855 91.104 7.20202 91.4519 8.75319C91.7296 9.72666 91.6594 15.1941 91.4998 15.8675H91.4966Z" fill="black" fill-opacity="0.2"/>
<path d="M106.884 4.21144H104.104L97.9851 11.0928H97.8926V4.21144H95.7158V20.4317H97.8926V13.295H100.513C102.584 13.295 104.266 14.9739 104.266 17.0485V20.4349H106.469V16.774C106.469 13.6525 103.938 11.1215 100.816 11.1215V11.0289L106.887 4.21782L106.884 4.21144Z" fill="#231F20"/>
<path d="M106.884 4.21144H104.104L97.9851 11.0928H97.8926V4.21144H95.7158V20.4317H97.8926V13.295H100.513C102.584 13.295 104.266 14.9739 104.266 17.0485V20.4349H106.469V16.774C106.469 13.6525 103.938 11.1215 100.816 11.1215V11.0289L106.887 4.21782L106.884 4.21144Z" fill="black" fill-opacity="0.2"/>
<path d="M108.856 20.4317H119.332V18.2326H111.033V13.2727H117.822V11.0704H111.033V6.39138H119.332V4.21144H108.856V20.4317Z" fill="#231F20"/>
<path d="M108.856 20.4317H119.332V18.2326H111.033V13.2727H117.822V11.0704H111.033V6.39138H119.332V4.21144H108.856V20.4317Z" fill="black" fill-opacity="0.2"/>
<path d="M44.8687 20.4317H55.347V18.2326H47.0486V13.2727H53.8342V11.0704H47.0486V6.39138H55.347V4.21144H44.8687V20.4317Z" fill="#231F20"/>
<path d="M44.8687 20.4317H55.347V18.2326H47.0486V13.2727H53.8342V11.0704H47.0486V6.39138H55.347V4.21144H44.8687V20.4317Z" fill="black" fill-opacity="0.2"/>
<path d="M129.733 4.21144H127.556V20.4317H137.339V18.2549H129.733V4.21144Z" fill="#231F20"/>
<path d="M129.733 4.21144H127.556V20.4317H137.339V18.2549H129.733V4.21144Z" fill="black" fill-opacity="0.2"/>
<path d="M144.785 4.0294C143.451 4.0294 142.279 4.92627 141.935 6.21572L138.188 20.4316H140.46L141.711 15.7493H147.852L149.103 20.4316H151.376L147.625 6.20615C147.281 4.92308 146.119 4.0294 144.788 4.0294H144.785ZM142.289 13.5726L144.067 6.75193C144.153 6.42957 144.446 6.20295 144.782 6.20295C145.117 6.20295 145.41 6.42957 145.497 6.75193L147.252 13.5694H142.292L142.289 13.5726Z" fill="#231F20"/>
<path d="M144.785 4.0294C143.451 4.0294 142.279 4.92627 141.935 6.21572L138.188 20.4316H140.46L141.711 15.7493H147.852L149.103 20.4316H151.376L147.625 6.20615C147.281 4.92308 146.119 4.0294 144.788 4.0294H144.785ZM142.289 13.5726L144.067 6.75193C144.153 6.42957 144.446 6.20295 144.782 6.20295C145.117 6.20295 145.41 6.42957 145.497 6.75193L147.252 13.5694H142.292L142.289 13.5726Z" fill="black" fill-opacity="0.2"/>
<path d="M159.266 12.2514H159.244V12.0663H159.266C161.213 12.0663 162.371 10.7226 162.371 8.75332C162.371 6.22868 160.402 4.18918 157.807 4.18918H152.34V20.4094H159.036C161.609 20.4094 163.626 18.3699 163.626 15.9155C163.626 13.4611 161.401 12.2546 159.269 12.2546L159.266 12.2514ZM154.539 6.36592H157.807C159.173 6.36592 160.217 7.47664 160.217 8.798C160.217 10.1194 159.173 11.2301 157.807 11.2301H154.539V6.36273V6.36592ZM159.173 18.2071H154.539V13.3653H159.129C160.495 13.3653 161.561 14.4314 161.561 15.7974C161.561 17.1635 160.495 18.2071 159.173 18.2071Z" fill="#231F20"/>
<path d="M159.266 12.2514H159.244V12.0663H159.266C161.213 12.0663 162.371 10.7226 162.371 8.75332C162.371 6.22868 160.402 4.18918 157.807 4.18918H152.34V20.4094H159.036C161.609 20.4094 163.626 18.3699 163.626 15.9155C163.626 13.4611 161.401 12.2546 159.269 12.2546L159.266 12.2514ZM154.539 6.36592H157.807C159.173 6.36592 160.217 7.47664 160.217 8.798C160.217 10.1194 159.173 11.2301 157.807 11.2301H154.539V6.36273V6.36592ZM159.173 18.2071H154.539V13.3653H159.129C160.495 13.3653 161.561 14.4314 161.561 15.7974C161.561 17.1635 160.495 18.2071 159.173 18.2071Z" fill="black" fill-opacity="0.2"/>
<path d="M171.644 11.0257C170.855 10.8182 170.137 10.6076 169.467 10.4001C168.123 9.95967 167.102 9.449 167.102 8.26807C167.102 6.87648 168.353 6.18388 170.115 6.18388C171.877 6.18388 172.965 6.90202 173.313 8.84896H175.467C175.305 5.69875 173.22 4.00714 170.045 4.00714C166.869 4.00714 164.9 5.60619 164.9 8.34148C164.9 14.1823 173.798 11.3544 173.798 15.8962C173.798 17.9357 171.873 18.3539 170.274 18.3539C168.05 18.3539 166.706 17.2176 166.451 14.6228H164.296V14.9483C164.296 18.4719 166.706 20.5561 170.507 20.5561C175.442 20.5561 175.93 17.058 176 15.759V15.5515C176 12.7716 173.939 11.6353 171.644 11.0321V11.0257Z" fill="#231F20"/>
<path d="M171.644 11.0257C170.855 10.8182 170.137 10.6076 169.467 10.4001C168.123 9.95967 167.102 9.449 167.102 8.26807C167.102 6.87648 168.353 6.18388 170.115 6.18388C171.877 6.18388 172.965 6.90202 173.313 8.84896H175.467C175.305 5.69875 173.22 4.00714 170.045 4.00714C166.869 4.00714 164.9 5.60619 164.9 8.34148C164.9 14.1823 173.798 11.3544 173.798 15.8962C173.798 17.9357 171.873 18.3539 170.274 18.3539C168.05 18.3539 166.706 17.2176 166.451 14.6228H164.296V14.9483C164.296 18.4719 166.706 20.5561 170.507 20.5561C175.442 20.5561 175.93 17.058 176 15.759V15.5515C176 12.7716 173.939 11.6353 171.644 11.0321V11.0257Z" fill="black" fill-opacity="0.2"/>
<path d="M17.1778 10.5663V4.70316C17.1778 2.55833 15.4319 0.80928 13.2839 0.80928H0V7.81826V25.1907H20.944V18.868C20.944 15.5645 19.4854 12.5962 17.1778 10.5695V10.5663ZM2.23419 3.04347H13.2871C14.1999 3.04347 14.9468 3.78714 14.9468 4.70316V9.04388C13.4339 8.26191 11.7168 7.81826 9.89748 7.81826H2.23419V3.04347ZM2.23419 22.9565V19.8063H8.78677C8.87613 19.8063 8.94635 19.8765 8.94635 19.9659V22.9565H2.23419ZM11.1837 22.9565V18.8999C11.1837 18.1658 10.5869 17.5689 9.85279 17.5689H2.23419V14.9358H9.87514C12.0551 14.9358 13.8297 16.7104 13.8297 18.8903V22.9533H11.1837V22.9565ZM18.7098 22.9565H16.0639V18.8935C16.0639 15.4816 13.2871 12.7048 9.87514 12.7048H2.23419V10.0525H9.89748C14.7584 10.0525 18.713 14.007 18.713 18.868V22.9565H18.7098Z" fill="#F44029"/>
</g>
<defs>
<clipPath id="clip0_2008_88">
<rect width="176" height="24.3814" fill="white" transform="translate(0 0.80928)"/>
</clipPath>
</defs>
</svg>
